<svg width="16" height="16" viewBox="0 0 18 18" fill="none" xmlns="http://www.w3.org/2000/svg">
<path fill-rule="evenodd" clip-rule="evenodd" d="M7.99996 0C10.2175 0 11.9999 1.96435 11.9999 4.28673C11.9999 5.45792 11.5069 6.68653 10.7948 7.62028C10.0933 8.54019 9.08871 9.28571 7.99996 9.28571C6.91121 9.28571 5.90658 8.54019 5.20507 7.62028C4.49301 6.68653 4 5.45792 4 4.28673C4 1.96435 5.78246 0 7.99996 0ZM7.99996 1C6.40424 1 5 2.44448 5 4.28673C5 5.19786 5.39387 6.21874 6.00025 7.0139C6.61718 7.82291 7.36252 8.28571 7.99996 8.28571C8.6374 8.28571 9.38275 7.82291 9.99968 7.0139C10.606 6.21874 10.9999 5.19786 10.9999 4.28673C10.9999 2.44448 9.59569 1 7.99996 1Z" fill="#222222"/>
<path d="M4.52675 9.00072C4.8025 9.01549 5.01406 9.251 4.99928 9.52675C4.98615 9.77186 4.79861 9.96625 4.56343 9.99605L4.44344 9.99822C3.93416 9.9837 3.27897 10.0477 2.65874 10.2554C1.65814 10.5904 1.07169 11.1966 1.00616 12.2L1 12.3928V15.5C1 15.7761 0.776142 16 0.5 16C0.25454 16 0.0503916 15.8231 0.00805566 15.5899L0 15.5V12.3928C0 10.7935 0.904397 9.78818 2.34126 9.3071C2.99855 9.08703 3.66493 9.00245 4.23422 8.99652L4.52675 9.00072Z" fill="#222222"/>
<path d="M13.6588 9.30711C12.9076 9.0556 12.1445 8.98105 11.5281 8.99863L11.4984 8.99964L11.3839 9.01357C11.1533 9.06833 10.9876 9.28165 11.0007 9.52675C11.0155 9.8025 11.251 10.0141 11.5268 9.99929L11.7832 9.997C12.2523 10.0049 12.8096 10.0774 13.3413 10.2554C14.4044 10.6113 15 11.2734 15 12.3928V15.5L15.0081 15.5899C15.0504 15.8231 15.2546 16 15.5 16C15.7762 16 16 15.7761 16 15.5V12.3928L15.9944 12.1784C15.9167 10.7032 15.0303 9.76632 13.6588 9.30711Z" fill="#222222"/>
</svg>
